<svg width="40" height="34" viewBox="0 0 40 34" fill="none" xmlns="http://www.w3.org/2000/svg">
    <path fill-rule="evenodd" clip-rule="evenodd" d="M4.85182 0C2.17223 0 0 2.14569 0 4.79254V23.0785C0 25.7253 2.17223 27.871 4.85182 27.871H5.76094V34L11.9657 27.871H35.1482C37.8278 27.871 40 25.7253 40 23.0785V4.79253C40 2.14569 37.8278 0 35.1482 0H4.85182ZM24.9944 13.9432V21.0857H29.6369V13.9432H31.9376V10.5952H29.4931V10.5749C29.4931 10.1285 29.5958 9.80386 29.8012 9.60095C30.0066 9.39804 30.2737 9.29659 30.6023 9.29659C30.7941 9.29659 30.9789 9.32364 31.157 9.37775C31.335 9.43186 31.4993 9.49273 31.65 9.56037L32.7593 6.37468C32.4169 6.18529 31.9924 6.05002 31.4857 5.96885C30.9926 5.87416 30.4996 5.82682 30.0066 5.82682C28.4044 5.82682 27.165 6.25293 26.2885 7.10515C25.4258 7.95738 24.9944 9.10044 24.9944 10.5343V10.5952H23.4537V13.9432H24.9944ZM7.03513 6.88196V21.0857H11.7598V14.627L17.224 21.0857H21.2091V6.88196H16.4845V13.3407L11.0203 6.88196H7.03513Z" fill="#0044CC" />
</svg>